<svg width="870" height="589" viewBox="0 0 870 589" fill="none" xmlns="http://www.w3.org/2000/svg">
<g clip-path="url(#clip0_1419_4560)" filter="url(#filter0_ddi_1419_4560)">
<rect width="750" height="468.75" transform="translate(60 40)" fill="#EAE5DE"/>
<path d="M60 40H810V69H60V40Z" fill="#EAE5DE"/>
<path d="M98.648 55.654H100.004C100.052 56.434 100.352 56.602 101.648 56.602C102.896 56.602 103.172 56.422 103.172 55.57C103.172 54.718 102.896 54.478 101.636 54.202C99.236 53.686 98.708 53.242 98.708 51.658C98.708 49.894 99.236 49.51 101.612 49.51C103.868 49.51 104.372 49.858 104.408 51.43H103.04C103.016 50.914 102.764 50.794 101.66 50.794C100.376 50.794 100.088 50.95 100.088 51.67C100.088 52.33 100.376 52.546 101.684 52.834C104.036 53.35 104.552 53.83 104.552 55.57C104.552 57.49 104.012 57.91 101.552 57.91C99.116 57.91 98.6 57.502 98.648 55.654ZM106.519 57.79L108.655 49.63H110.923L113.071 57.79H111.703L111.211 55.978H108.355L107.887 57.79H106.519ZM108.667 54.73H110.923L109.927 50.878H109.663L108.667 54.73ZM115.135 57.79V49.63H116.959L119.563 56.158H119.599L119.467 53.938V49.63H120.835V57.79H118.999L116.407 51.25H116.371L116.503 53.47V57.79H115.135ZM125.466 57.79V50.926H123.342V49.63H129.018V50.926H126.882V57.79H125.466ZM131.105 57.79L133.241 49.63H135.509L137.657 57.79H136.289L135.797 55.978H132.941L132.473 57.79H131.105ZM133.253 54.73H135.509L134.513 50.878H134.249L133.253 54.73Z" fill="#2C2C2C"/>
<rect x="76" y="48" width="12" height="12" fill="#FF0000"/>
<rect x="778.5" y="46.5" width="15" height="15" stroke="#2C2C2C"/>
<g clip-path="url(#clip1_1419_4560)">
<g clip-path="url(#clip2_1419_4560)">
<path d="M783.5 57.5H782.5V56.5H783.5V57.5ZM789.5 57.5H788.5V56.5H789.5V57.5ZM784.5 55.5V56.5H783.5V55.5H784.5ZM788.5 56.5H787.5V55.5H788.5V56.5ZM785.5 55.5H784.5V54.5H785.5V55.5ZM787.5 55.5H786.5V54.5H787.5V55.5ZM786.5 54.5H785.5V53.5H786.5V54.5ZM785.5 53.5H784.5V52.5H785.5V53.5ZM787.5 53.5H786.5V52.5H787.5V53.5ZM784.5 52.5H783.5V51.5H784.5V52.5ZM788.5 52.5H787.5V51.5H788.5V52.5ZM783.5 51.5H782.5V50.5H783.5V51.5ZM789.5 51.5H788.5V50.5H789.5V51.5Z" fill="#140206"/>
</g>
</g>
<g filter="url(#filter1_ddddd_1419_4560)">
<rect x="151.02" y="46" width="606.98" height="1" fill="#2C2C2C"/>
</g>
<g filter="url(#filter2_ii_1419_4560)">
<rect width="750" height="439.75" transform="translate(60 69)" fill="#1A1A1A"/>
</g>
</g>
<defs>
<filter id="filter0_ddi_1419_4560" x="0" y="0" width="870" height="588.75" filterUnits="userSpaceOnUse" color-interpolation-filters="sRGB">
<feFlood flood-opacity="0" result="BackgroundImageFix"/>
<feColorMatrix in="SourceAlpha" type="matrix" values="0 0 0 0 0 0 0 0 0 0 0 0 0 0 0 0 0 0 127 0" result="hardAlpha"/>
<feOffset dy="20"/>
<feGaussianBlur stdDeviation="30"/>
<feComposite in2="hardAlpha" operator="out"/>
<feColorMatrix type="matrix" values="0 0 0 0 0 0 0 0 0 0 0 0 0 0 0 0 0 0 0.3 0"/>
<feBlend mode="normal" in2="BackgroundImageFix" result="effect1_dropShadow_1419_4560"/>
<feColorMatrix in="SourceAlpha" type="matrix" values="0 0 0 0 0 0 0 0 0 0 0 0 0 0 0 0 0 0 127 0" result="hardAlpha"/>
<feMorphology radius="0.3" operator="dilate" in="SourceAlpha" result="effect2_dropShadow_1419_4560"/>
<feOffset/>
<feComposite in2="hardAlpha" operator="out"/>
<feColorMatrix type="matrix" values="0 0 0 0 0.290196 0 0 0 0 0.290196 0 0 0 0 0.290196 0 0 0 1 0"/>
<feBlend mode="normal" in2="effect1_dropShadow_1419_4560" result="effect2_dropShadow_1419_4560"/>
<feBlend mode="normal" in="SourceGraphic" in2="effect2_dropShadow_1419_4560" result="shape"/>
<feColorMatrix in="SourceAlpha" type="matrix" values="0 0 0 0 0 0 0 0 0 0 0 0 0 0 0 0 0 0 127 0" result="hardAlpha"/>
<feMorphology radius="1" operator="erode" in="SourceAlpha" result="effect3_innerShadow_1419_4560"/>
<feOffset/>
<feComposite in2="hardAlpha" operator="arithmetic" k2="-1" k3="1"/>
<feColorMatrix type="matrix" values="0 0 0 0 0.815686 0 0 0 0 0.815686 0 0 0 0 0.815686 0 0 0 1 0"/>
<feBlend mode="normal" in2="shape" result="effect3_innerShadow_1419_4560"/>
</filter>
<filter id="filter1_ddddd_1419_4560" x="151.02" y="46" width="606.98" height="13.5" filterUnits="userSpaceOnUse" color-interpolation-filters="sRGB">
<feFlood flood-opacity="0" result="BackgroundImageFix"/>
<feColorMatrix in="SourceAlpha" type="matrix" values="0 0 0 0 0 0 0 0 0 0 0 0 0 0 0 0 0 0 127 0" result="hardAlpha"/>
<feOffset dy="12.5"/>
<feComposite in2="hardAlpha" operator="out"/>
<feColorMatrix type="matrix" values="0 0 0 0 0.172549 0 0 0 0 0.172549 0 0 0 0 0.172549 0 0 0 1 0"/>
<feBlend mode="normal" in2="BackgroundImageFix" result="effect1_dropShadow_1419_4560"/>
<feColorMatrix in="SourceAlpha" type="matrix" values="0 0 0 0 0 0 0 0 0 0 0 0 0 0 0 0 0 0 127 0" result="hardAlpha"/>
<feOffset dy="10"/>
<feComposite in2="hardAlpha" operator="out"/>
<feColorMatrix type="matrix" values="0 0 0 0 0.172549 0 0 0 0 0.172549 0 0 0 0 0.172549 0 0 0 1 0"/>
<feBlend mode="normal" in2="effect1_dropShadow_1419_4560" result="effect2_dropShadow_1419_4560"/>
<feColorMatrix in="SourceAlpha" type="matrix" values="0 0 0 0 0 0 0 0 0 0 0 0 0 0 0 0 0 0 127 0" result="hardAlpha"/>
<feOffset dy="7.5"/>
<feComposite in2="hardAlpha" operator="out"/>
<feColorMatrix type="matrix" values="0 0 0 0 0.172549 0 0 0 0 0.172549 0 0 0 0 0.172549 0 0 0 1 0"/>
<feBlend mode="normal" in2="effect2_dropShadow_1419_4560" result="effect3_dropShadow_1419_4560"/>
<feColorMatrix in="SourceAlpha" type="matrix" values="0 0 0 0 0 0 0 0 0 0 0 0 0 0 0 0 0 0 127 0" result="hardAlpha"/>
<feOffset dy="5"/>
<feComposite in2="hardAlpha" operator="out"/>
<feColorMatrix type="matrix" values="0 0 0 0 0.172549 0 0 0 0 0.172549 0 0 0 0 0.172549 0 0 0 1 0"/>
<feBlend mode="normal" in2="effect3_dropShadow_1419_4560" result="effect4_dropShadow_1419_4560"/>
<feColorMatrix in="SourceAlpha" type="matrix" values="0 0 0 0 0 0 0 0 0 0 0 0 0 0 0 0 0 0 127 0" result="hardAlpha"/>
<feOffset dy="2.5"/>
<feComposite in2="hardAlpha" operator="out"/>
<feColorMatrix type="matrix" values="0 0 0 0 0.172549 0 0 0 0 0.172549 0 0 0 0 0.172549 0 0 0 1 0"/>
<feBlend mode="normal" in2="effect4_dropShadow_1419_4560" result="effect5_dropShadow_1419_4560"/>
<feBlend mode="normal" in="SourceGraphic" in2="effect5_dropShadow_1419_4560" result="shape"/>
</filter>
<filter id="filter2_ii_1419_4560" x="60" y="69" width="750" height="439.75" filterUnits="userSpaceOnUse" color-interpolation-filters="sRGB">
<feFlood flood-opacity="0" result="BackgroundImageFix"/>
<feBlend mode="normal" in="SourceGraphic" in2="BackgroundImageFix" result="shape"/>
<feColorMatrix in="SourceAlpha" type="matrix" values="0 0 0 0 0 0 0 0 0 0 0 0 0 0 0 0 0 0 127 0" result="hardAlpha"/>
<feMorphology radius="6" operator="erode" in="SourceAlpha" result="effect1_innerShadow_1419_4560"/>
<feOffset/>
<feComposite in2="hardAlpha" operator="arithmetic" k2="-1" k3="1"/>
<feColorMatrix type="matrix" values="0 0 0 0 0 0 0 0 0 0 0 0 0 0 0 0 0 0 1 0"/>
<feBlend mode="normal" in2="shape" result="effect1_innerShadow_1419_4560"/>
<feColorMatrix in="SourceAlpha" type="matrix" values="0 0 0 0 0 0 0 0 0 0 0 0 0 0 0 0 0 0 127 0" result="hardAlpha"/>
<feMorphology radius="5" operator="erode" in="SourceAlpha" result="effect2_innerShadow_1419_4560"/>
<feOffset/>
<feComposite in2="hardAlpha" operator="arithmetic" k2="-1" k3="1"/>
<feColorMatrix type="matrix" values="0 0 0 0 0.917647 0 0 0 0 0.898039 0 0 0 0 0.870588 0 0 0 1 0"/>
<feBlend mode="normal" in2="effect1_innerShadow_1419_4560" result="effect2_innerShadow_1419_4560"/>
</filter>
<clipPath id="clip0_1419_4560">
<rect width="750" height="468.75" fill="white" transform="translate(60 40)"/>
</clipPath>
<clipPath id="clip1_1419_4560">
<rect width="12" height="12" fill="white" transform="translate(780 48)"/>
</clipPath>
<clipPath id="clip2_1419_4560">
<rect width="12" height="12" fill="white" transform="translate(780 48)"/>
</clipPath>
</defs>
</svg>
