<svg width="163" height="21" viewBox="0 0 163 21" fill="none" xmlns="http://www.w3.org/2000/svg">
<g clip-path="url(#clip0_1439_4623)">
<path d="M59.7617 11.1172L63.1035 0.849609H75.6729V11.7812C75.6729 13.1128 76.4444 14.0839 77.7119 14.084C78.9796 14.084 79.7519 13.1129 79.752 11.7812V0.849609H86.2559V12.1699C86.2557 17.1637 82.7551 20.2988 77.7119 20.2988C72.6689 20.2987 69.1691 17.1636 69.1689 12.1699V3.32324L63.4072 19.7471H56.0322L49.4863 0.849609H56.9717L59.7617 11.1172ZM94.1211 0.298828C97.2046 0.298828 99.628 1.51976 101.335 3.62793L96.957 7.70508C95.9385 6.51243 95.1676 5.90234 94.0664 5.90234C93.3233 5.90235 92.8001 6.15174 92.7998 6.62305C92.7998 7.12233 93.4056 7.23377 93.9287 7.34473C98.3062 8.23238 101.61 9.59164 101.61 13.9189C101.61 17.7746 98.4165 20.2987 93.7363 20.2988C90.2399 20.2988 87.4867 18.9119 85.8623 16.3877L90.0742 12.4766C90.9552 13.7248 92.4974 14.6953 94.1768 14.6953C94.8923 14.6953 95.443 14.5292 95.4434 14.0303C95.4434 13.531 94.8375 13.3639 94.3145 13.2529C89.7168 12.3098 86.7432 10.7011 86.7432 6.79004C86.7432 2.768 90.1843 0.298998 94.1211 0.298828ZM19.877 11.7236L17.543 12.6455L18.6602 14.3447L17.543 15.2178L18.6602 15.8975L17.543 17.1592L18.0283 19.7793H0V0.804688H16.1104L19.877 11.7236ZM38.4844 6.95508H33.8135V19.7471H27.3281V6.95508H22.6572V0.849609H38.4844V6.95508ZM55.0186 19.7471H47.6162L47.0107 17.2227H42.1133L41.3975 19.7471H34.5459L41.1221 0.849609H48.4697L55.0186 19.7471ZM1.00391 18.7754H8.88672L8.5752 16.9795L9.69141 15.7178L8.5752 15.0381L9.69141 14.165L8.5752 12.6455L11.1357 11.915L7.62598 1.80859H1.00391V18.7754ZM43.5713 12.0049H45.7451L44.7549 7.87012L43.5713 12.0049ZM14.0312 6.41992C13.3522 6.42002 12.8019 6.97137 12.8018 7.65039C12.8019 8.32938 13.3522 8.87979 14.0312 8.87988C14.7103 8.87988 15.2615 8.32944 15.2617 7.65039C15.2616 6.97132 14.7104 6.41992 14.0312 6.41992ZM6.57812 8.74023H4.33008V6.49316H6.57812V8.74023Z" fill="white"/>
</g>
<path d="M110.478 2.3115H108V1.3875H114.027V2.3115H111.549V9H110.478V2.3115ZM113.557 7.509C113.557 7.187 113.641 6.9105 113.809 6.6795C113.984 6.4485 114.25 6.2595 114.607 6.1125C114.971 5.9655 115.363 5.85 115.783 5.766C116.21 5.675 116.742 5.5945 117.379 5.5245V5.388C117.379 4.905 117.26 4.555 117.022 4.338C116.791 4.121 116.483 4.0125 116.098 4.0125C115.706 4.0125 115.398 4.114 115.174 4.317C114.95 4.513 114.828 4.786 114.807 5.136H113.82C113.862 4.555 114.103 4.093 114.544 3.75C114.992 3.407 115.507 3.2355 116.088 3.2355C116.865 3.2355 117.435 3.4245 117.799 3.8025C118.163 4.1805 118.342 4.7685 118.335 5.5665L118.324 6.8685C118.317 7.7435 118.366 8.454 118.471 9H117.505C117.463 8.727 117.439 8.468 117.432 8.223C117.068 8.832 116.424 9.1365 115.5 9.1365C114.947 9.1365 114.485 8.993 114.114 8.706C113.743 8.412 113.557 8.013 113.557 7.509ZM117.453 6.2805C116.984 6.3295 116.588 6.382 116.266 6.438C115.951 6.494 115.661 6.5675 115.395 6.6585C115.129 6.7495 114.933 6.865 114.807 7.005C114.681 7.138 114.618 7.299 114.618 7.488C114.618 7.761 114.716 7.978 114.912 8.139C115.108 8.3 115.374 8.3805 115.71 8.3805C116.214 8.3805 116.63 8.244 116.959 7.971C117.288 7.698 117.453 7.2535 117.453 6.6375V6.2805ZM120.714 1.3875V5.892L122.992 3.351H124.168L122.016 5.6925L124.462 9H123.297L121.375 6.396L120.714 7.11V9H119.758V1.3875H120.714ZM125.546 6.4905C125.567 7.0645 125.749 7.509 126.092 7.824C126.435 8.139 126.834 8.2965 127.289 8.2965C128.045 8.2965 128.56 7.985 128.833 7.362H129.82C129.68 7.88 129.386 8.307 128.938 8.643C128.497 8.972 127.947 9.1365 127.289 9.1365C126.421 9.1365 125.742 8.86 125.252 8.307C124.762 7.754 124.517 7.047 124.517 6.186C124.517 5.311 124.776 4.604 125.294 4.065C125.819 3.526 126.474 3.2565 127.258 3.2565C128.105 3.2565 128.77 3.568 129.253 4.191C129.743 4.814 129.956 5.5805 129.893 6.4905H125.546ZM125.557 5.6715H128.885C128.871 5.2445 128.717 4.8735 128.423 4.5585C128.129 4.2365 127.741 4.0755 127.258 4.0755C126.796 4.0755 126.407 4.2085 126.092 4.4745C125.777 4.7335 125.599 5.1325 125.557 5.6715ZM139.788 1.3875V9H138.717V5.5455H134.717V9H133.646V1.3875H134.717V4.6215H138.717V1.3875H139.788ZM145.687 4.0125C146.226 4.5165 146.496 5.2445 146.496 6.1965C146.496 7.1485 146.226 7.8765 145.687 8.3805C145.148 8.8845 144.515 9.1365 143.787 9.1365C143.059 9.1365 142.425 8.8845 141.886 8.3805C141.347 7.8765 141.078 7.1485 141.078 6.1965C141.078 5.2445 141.347 4.5165 141.886 4.0125C142.425 3.5085 143.059 3.2565 143.787 3.2565C144.515 3.2565 145.148 3.5085 145.687 4.0125ZM143.787 8.2965C144.256 8.2965 144.655 8.118 144.984 7.761C145.313 7.397 145.477 6.8755 145.477 6.1965C145.477 5.4965 145.313 4.9715 144.984 4.6215C144.662 4.2715 144.263 4.0965 143.787 4.0965C143.304 4.0965 142.901 4.268 142.579 4.611C142.257 4.947 142.096 5.4755 142.096 6.1965C142.096 6.8965 142.257 7.4215 142.579 7.7715C142.908 8.1215 143.311 8.2965 143.787 8.2965ZM148.594 9H147.639V3.351H148.594V4.2015C148.979 3.5715 149.546 3.2565 150.295 3.2565C151.107 3.2565 151.65 3.589 151.923 4.254C152.357 3.589 152.99 3.2565 153.823 3.2565C155.041 3.2565 155.65 3.981 155.65 5.43V9H154.695V5.7135C154.695 5.2025 154.611 4.8035 154.443 4.5165C154.282 4.2295 153.963 4.086 153.487 4.086C153.067 4.086 152.735 4.247 152.49 4.569C152.245 4.884 152.122 5.339 152.122 5.934V9H151.167V5.7135C151.167 5.2025 151.083 4.8035 150.915 4.5165C150.754 4.2295 150.435 4.086 149.959 4.086C149.539 4.086 149.207 4.247 148.962 4.569C148.717 4.884 148.594 5.339 148.594 5.934V9ZM157.723 6.4905C157.744 7.0645 157.926 7.509 158.269 7.824C158.612 8.139 159.011 8.2965 159.466 8.2965C160.222 8.2965 160.737 7.985 161.01 7.362H161.997C161.857 7.88 161.563 8.307 161.115 8.643C160.674 8.972 160.124 9.1365 159.466 9.1365C158.598 9.1365 157.919 8.86 157.429 8.307C156.939 7.754 156.694 7.047 156.694 6.186C156.694 5.311 156.953 4.604 157.471 4.065C157.996 3.526 158.651 3.2565 159.435 3.2565C160.282 3.2565 160.947 3.568 161.43 4.191C161.92 4.814 162.133 5.5805 162.07 6.4905H157.723ZM157.734 5.6715H161.062C161.048 5.2445 160.894 4.8735 160.6 4.5585C160.306 4.2365 159.918 4.0755 159.435 4.0755C158.973 4.0755 158.584 4.2085 158.269 4.4745C157.954 4.7335 157.776 5.1325 157.734 5.6715ZM111.287 11.3875C112.316 11.3875 113.1 11.552 113.639 11.881C114.178 12.21 114.447 12.812 114.447 13.687C114.447 14.149 114.37 14.534 114.216 14.842C114.069 15.15 113.849 15.388 113.555 15.556C113.261 15.717 112.932 15.829 112.568 15.892C112.211 15.955 111.784 15.9865 111.287 15.9865H109.974V19H108.903V11.3875H111.287ZM109.974 12.2905V15.052H111.371C111.623 15.052 111.833 15.045 112.001 15.031C112.176 15.017 112.354 14.9855 112.536 14.9365C112.725 14.8805 112.872 14.807 112.977 14.716C113.089 14.618 113.18 14.485 113.25 14.317C113.32 14.142 113.355 13.932 113.355 13.687C113.355 13.449 113.32 13.2425 113.25 13.0675C113.18 12.8925 113.089 12.756 112.977 12.658C112.872 12.56 112.729 12.483 112.547 12.427C112.365 12.371 112.186 12.336 112.011 12.322C111.836 12.301 111.623 12.2905 111.371 12.2905H109.974ZM118.143 14.3485C117.877 14.3205 117.698 14.3065 117.607 14.3065C117.159 14.3065 116.827 14.443 116.61 14.716C116.393 14.989 116.284 15.43 116.284 16.039V19H115.329V13.351H116.263V14.338C116.557 13.68 117.089 13.3405 117.859 13.3195C117.978 13.3195 118.073 13.323 118.143 13.33V14.3485ZM123.201 14.0125C123.74 14.5165 124.009 15.2445 124.009 16.1965C124.009 17.1485 123.74 17.8765 123.201 18.3805C122.662 18.8845 122.028 19.1365 121.3 19.1365C120.572 19.1365 119.939 18.8845 119.4 18.3805C118.861 17.8765 118.591 17.1485 118.591 16.1965C118.591 15.2445 118.861 14.5165 119.4 14.0125C119.939 13.5085 120.572 13.2565 121.3 13.2565C122.028 13.2565 122.662 13.5085 123.201 14.0125ZM121.3 18.2965C121.769 18.2965 122.168 18.118 122.497 17.761C122.826 17.397 122.991 16.8755 122.991 16.1965C122.991 15.4965 122.826 14.9715 122.497 14.6215C122.175 14.2715 121.776 14.0965 121.3 14.0965C120.817 14.0965 120.415 14.268 120.093 14.611C119.771 14.947 119.61 15.4755 119.61 16.1965C119.61 16.8965 119.771 17.4215 120.093 17.7715C120.422 18.1215 120.824 18.2965 121.3 18.2965ZM126.107 11.3875V12.5425H125.152V11.3875H126.107ZM125.152 13.351H126.107V19.2835C126.107 19.8855 126.016 20.295 125.834 20.512C125.659 20.729 125.306 20.8375 124.774 20.8375H124.291V20.0395H124.564C124.809 20.0395 124.966 19.9905 125.036 19.8925C125.113 19.8015 125.152 19.6055 125.152 19.3045V13.351ZM128.264 16.4905C128.285 17.0645 128.467 17.509 128.81 17.824C129.153 18.139 129.552 18.2965 130.007 18.2965C130.763 18.2965 131.277 17.985 131.55 17.362H132.537C132.397 17.88 132.103 18.307 131.655 18.643C131.214 18.972 130.665 19.1365 130.007 19.1365C129.139 19.1365 128.46 18.86 127.97 18.307C127.48 17.754 127.235 17.047 127.235 16.186C127.235 15.311 127.494 14.604 128.012 14.065C128.537 13.526 129.191 13.2565 129.975 13.2565C130.822 13.2565 131.487 13.568 131.97 14.191C132.46 14.814 132.674 15.5805 132.611 16.4905H128.264ZM128.274 15.6715H131.603C131.589 15.2445 131.435 14.8735 131.141 14.5585C130.847 14.2365 130.458 14.0755 129.975 14.0755C129.513 14.0755 129.125 14.2085 128.81 14.4745C128.495 14.7335 128.316 15.1325 128.274 15.6715ZM138.48 15.241H137.514C137.444 14.905 137.272 14.632 136.999 14.422C136.733 14.205 136.418 14.0965 136.054 14.0965C135.599 14.0965 135.214 14.275 134.899 14.632C134.584 14.989 134.427 15.5035 134.427 16.1755C134.427 16.8545 134.584 17.3795 134.899 17.7505C135.214 18.1145 135.599 18.2965 136.054 18.2965C136.439 18.2965 136.768 18.188 137.041 17.971C137.314 17.747 137.486 17.4775 137.556 17.1625H138.543C138.445 17.7085 138.158 18.174 137.682 18.559C137.213 18.944 136.66 19.1365 136.023 19.1365C135.225 19.1365 134.584 18.8635 134.101 18.3175C133.625 17.7715 133.387 17.061 133.387 16.186C133.387 15.332 133.636 14.632 134.133 14.086C134.63 13.533 135.291 13.2565 136.117 13.2565C136.761 13.2565 137.297 13.4595 137.724 13.8655C138.158 14.2645 138.41 14.723 138.48 15.241ZM139.893 11.9335H140.849V13.351H141.92V14.1175H140.849V17.467C140.849 17.775 140.88 17.9745 140.943 18.0655C141.013 18.1565 141.178 18.202 141.437 18.202H141.92V19H141.227C140.681 19 140.32 18.909 140.145 18.727C139.977 18.545 139.893 18.1635 139.893 17.5825V14.1175H139.001V13.351H139.893V11.9335Z" fill="white"/>
<defs>
<clipPath id="clip0_1439_4623">
<rect width="102" height="21" fill="white"/>
</clipPath>
</defs>
</svg>
